<?xml version="1.0" encoding="utf-8"?>
<!-- Generator: Adobe Illustrator 21.0.0, SVG Export Plug-In . SVG Version: 6.00 Build 0)  -->
<svg width="30" height="30" version="1.1" id="Слой_1" xmlns="http://www.w3.org/2000/svg" xmlns:xlink="http://www.w3.org/1999/xlink" x="0px" y="0px"
	 viewBox="0 0 24 24" style="enable-background:new 0 0 24 24;" xml:space="preserve">
<path d="M16,12c0-2.2-1.8-4-4-4s-4,1.8-4,4s1.8,4,4,4S16,14.2,16,12z M18.2,12c0,3.4-2.7,6.2-6.2,6.2S5.8,15.4,5.8,12
	S8.6,5.8,12,5.8S18.2,8.6,18.2,12z M19.8,5.6c0,0.8-0.6,1.4-1.4,1.4S17,6.4,17,5.6s0.6-1.4,1.4-1.4S19.8,4.8,19.8,5.6z M12,2.2
	c-1.8,0-5.5-0.1-7.1,0.5C4.4,2.9,4,3.1,3.5,3.5S2.9,4.4,2.6,4.9C2,6.5,2.2,10.2,2.2,12S2,17.5,2.6,19.1c0.2,0.5,0.5,1,0.9,1.4
	s0.8,0.7,1.4,0.9c1.6,0.6,5.3,0.5,7.1,0.5s5.5,0.1,7.1-0.5c0.5-0.2,1-0.5,1.4-0.9s0.7-0.8,0.9-1.4c0.6-1.6,0.5-5.3,0.5-7.1
	s0.1-5.5-0.5-7.1c-0.2-0.5-0.5-1-0.9-1.4s-0.8-0.7-1.4-0.9C17.5,2,13.7,2.2,12,2.2z M24,12c0,1.7,0,3.3-0.1,5
	c-0.1,1.9-0.5,3.6-1.9,5s-3.1,1.8-5,1.9C15.3,24,13.7,24,12,24s-3.3,0-5-0.1c-1.9-0.1-3.6-0.5-5-1.9s-1.8-3.1-1.9-5
	C0,15.3,0,13.7,0,12s0-3.3,0.1-5C0.2,5.1,0.6,3.4,2,2s3.1-1.8,5-1.9C8.7,0,10.3,0,12,0s3.3,0,5,0.1c1.9,0.1,3.6,0.5,5,1.9
	s1.8,3.1,1.9,5C24,8.7,24,10.3,24,12z"/>
</svg>
