<?xml version="1.0" encoding="utf-8"?>
<!-- Generator: Adobe Illustrator 21.0.0, SVG Export Plug-In . SVG Version: 6.00 Build 0)  -->
<svg
  width="30"
  height="30"
  version="1.1"
  id="Слой_1"
  xmlns="http://www.w3.org/2000/svg"
  xmlns:xlink="http://www.w3.org/1999/xlink"
  x="0px"
  y="0px"
  viewBox="0 0 24 26"
  style="enable-background:new 0 0 24 26;"
  xml:space="preserve"
>
  <path
    d="M24,1.5V19c0,2.2-3.3,3-5,3s-5-0.8-5-3s3.3-3,5-3c1,0,2.1,0.2,3,0.6V8.2l-12,3.7V23c0,2.2-3.3,3-5,3s-5-0.8-5-3s3.3-3,5-3
	c1,0,2.1,0.2,3,0.6V5.5c0-0.7,0.4-1.2,1.1-1.4l13-4C22.2,0,22.3,0,22.5,0C23.3,0,24,0.7,24,1.5L24,1.5z"
  />
</svg>
